<svg width="115" height="113" viewBox="0 0 115 113" fill="none" xmlns="http://www.w3.org/2000/svg">
<path d="M86.25 103.583C88.7917 103.583 91.2292 102.591 93.0265 100.825C94.8237 99.0592 95.8334 96.6641 95.8334 94.1666V37.6666L67.0834 9.41663H28.75C26.2084 9.41663 23.7708 10.4087 21.9736 12.1747C20.1764 13.9407 19.1667 16.3358 19.1667 18.8333V94.1666C19.1667 96.6641 20.1764 99.0592 21.9736 100.825C23.7708 102.591 26.2084 103.583 28.75 103.583H86.25ZM62.2917 18.8333L86.25 42.375H62.2917V18.8333ZM33.5417 37.6666H47.9167V47.0833H33.5417V37.6666ZM33.5417 56.5H81.4584V65.9166H33.5417V56.5ZM33.5417 75.3333H81.4584V84.75H33.5417V75.3333Z" fill="#699BF7"/>
</svg>
