<svg width="39" height="35" viewBox="0 0 39 35" fill="none" xmlns="http://www.w3.org/2000/svg">
<g clip-path="url(#clip0_1_70)">
<path d="M19.5 27.3875C25.0033 27.3875 28.6867 24.393 28.6867 18.6375V8.30275C28.6867 8.00622 28.5554 7.72184 28.3218 7.51216C28.0881 7.30249 27.7712 7.18469 27.4408 7.18469C27.1104 7.18469 26.7935 7.30249 26.5599 7.51216C26.3262 7.72184 26.195 8.00622 26.195 8.30275V18.8027C26.195 23.1194 23.6167 25.3264 19.5542 25.3264C15.4917 25.3264 12.8267 22.925 12.8267 18.6666V8.30275C12.8267 8.00622 12.6954 7.72184 12.4618 7.51216C12.2281 7.30249 11.9112 7.18469 11.5808 7.18469C11.2504 7.18469 10.9335 7.30249 10.6999 7.51216C10.4662 7.72184 10.335 8.00622 10.335 8.30275V18.8027C10.3242 24.393 14.0833 27.3875 19.5 27.3875Z" fill="#111111"/>
<path d="M33.5833 29.1667H5.41668C5.11884 29.1921 4.84227 29.3163 4.641 29.515C4.43972 29.7136 4.32819 29.9725 4.32819 30.241C4.32819 30.5095 4.43972 30.7684 4.641 30.967C4.84227 31.1657 5.11884 31.2898 5.41668 31.3153H33.5833C33.8812 31.2898 34.1577 31.1657 34.359 30.967C34.5603 30.7684 34.6718 30.5095 34.6718 30.241C34.6718 29.9725 34.5603 29.7136 34.359 29.515C34.1577 29.3163 33.8812 29.1921 33.5833 29.1667Z" fill="#111111"/>
</g>
<defs>
<clipPath id="clip0_1_70">
<rect width="39" height="35" fill="white"/>
</clipPath>
</defs>
</svg>
