<svg width="40" height="40" viewBox="0 0 40 40" fill="none" xmlns="http://www.w3.org/2000/svg">
<path d="M7.5 9.16669H32.5V11.6667H7.5V9.16669Z" fill="#424242"/>
<path d="M3.33331 20.8334H36.6666V15C36.6666 13.1667 35.1666 11.6667 33.3333 11.6667H6.66665C4.83331 11.6667 3.33331 13.1667 3.33331 15V20.8334Z" fill="#616161"/>
<path d="M6.66665 30H33.3333C35.1666 30 36.6666 28.5 36.6666 26.6667V20H3.33331V26.6667C3.33331 28.5 4.83331 30 6.66665 30Z" fill="#424242"/>
<path d="M33.3333 15.8334C33.7936 15.8334 34.1667 15.4603 34.1667 15C34.1667 14.5398 33.7936 14.1667 33.3333 14.1667C32.8731 14.1667 32.5 14.5398 32.5 15C32.5 15.4603 32.8731 15.8334 33.3333 15.8334Z" fill="#00E676"/>
<path d="M9.16669 3.33331H30.8334V11.6666H9.16669V3.33331Z" fill="#90CAF9"/>
<path d="M31.25 25.8333H8.75C8.08333 25.8333 7.5 25.25 7.5 24.5833C7.5 23.9166 8.08333 23.3333 8.75 23.3333H31.25C31.9167 23.3333 32.5 23.9166 32.5 24.5833C32.5 25.25 31.9167 25.8333 31.25 25.8333Z" fill="#242424"/>
<path d="M9.16669 25.8333H30.8334V35H9.16669V25.8333Z" fill="#90CAF9"/>
<path d="M9.16669 24.1667H30.8334V25.8334H9.16669V24.1667Z" fill="#42A5F5"/>
<path d="M13.3333 27.5H27.5V29.1667H13.3333V27.5ZM13.3333 30.8333H24.1666V32.5H13.3333V30.8333Z" fill="#1976D2"/>
</svg>
