<svg width="37" height="37" viewBox="0 0 37 37" fill="none" xmlns="http://www.w3.org/2000/svg">
<path d="M19.3584 4.28092C19.2896 4.10955 19.1711 3.9627 19.0181 3.85927C18.8651 3.75584 18.6847 3.70056 18.5 3.70056C18.3153 3.70056 18.1349 3.75584 17.9819 3.85927C17.8289 3.9627 17.7104 4.10955 17.6416 4.28092L12.0916 18.1559C12.0434 18.2692 12.0184 18.391 12.0178 18.514C12.0173 18.6371 12.0414 18.7591 12.0886 18.8728C12.1358 18.9864 12.2053 19.0895 12.2929 19.176C12.3804 19.2625 12.4844 19.3307 12.5987 19.3765C12.7129 19.4223 12.8352 19.4448 12.9582 19.4427C13.0813 19.4407 13.2027 19.4141 13.3154 19.3645C13.4281 19.3149 13.5297 19.2434 13.6144 19.154C13.699 19.0647 13.765 18.9593 13.8084 18.8441L15.7934 13.8824H21.2065L23.1916 18.8441C23.235 18.9593 23.301 19.0647 23.3856 19.154C23.4703 19.2434 23.5719 19.3149 23.6846 19.3645C23.7972 19.4141 23.9187 19.4407 24.0417 19.4427C24.1648 19.4448 24.2871 19.4223 24.4013 19.3765C24.5156 19.3307 24.6195 19.2625 24.7071 19.176C24.7947 19.0895 24.8641 18.9864 24.9114 18.8728C24.9586 18.7591 24.9826 18.6371 24.9821 18.514C24.9816 18.391 24.9566 18.2692 24.9084 18.1559L19.3584 4.28092ZM18.5 7.11512L20.4665 12.0324H16.5334L18.5 7.11512ZM8.32499 22.2C7.58901 22.2 6.88318 22.4924 6.36277 23.0128C5.84235 23.5332 5.54999 24.239 5.54999 24.975V30.525C5.54999 31.261 5.84235 31.9668 6.36277 32.4872C6.88318 33.0077 7.58901 33.3 8.32499 33.3H28.675C29.411 33.3 30.1168 33.0077 30.6372 32.4872C31.1576 31.9668 31.45 31.261 31.45 30.525V24.975C31.45 24.239 31.1576 23.5332 30.6372 23.0128C30.1168 22.4924 29.411 22.2 28.675 22.2H8.32499Z" fill="#111111"/>
</svg>
