<svg width="29" height="27" viewBox="0 0 29 27" fill="none" xmlns="http://www.w3.org/2000/svg">
<path opacity="0.16" d="M18.6669 17.7884H10.3335C9.13728 17.7885 7.97298 18.1543 7.01364 18.8314C6.05429 19.5085 5.3511 20.4607 5.00854 21.5467C6.18079 22.8456 7.63643 23.8881 9.2751 24.6024C10.9138 25.3167 12.6964 25.6857 14.5002 25.684C16.304 25.6857 18.0866 25.3167 19.7253 24.6024C21.364 23.8881 22.8196 22.8456 23.9919 21.5467C23.6493 20.4607 22.9461 19.5085 21.9868 18.8314C21.0274 18.1543 19.8631 17.7885 18.6669 17.7884Z" fill="#111111"/>
<path d="M27 13.8407C27.0041 16.1919 26.266 18.4907 24.8805 20.4414C23.738 22.056 22.1931 23.379 20.3826 24.2934C18.5721 25.2078 16.5517 25.6854 14.5 25.6841C12.4483 25.6854 10.4279 25.2078 8.61737 24.2934C6.80684 23.379 5.26201 22.056 4.11944 20.4414C3.03157 18.9049 2.33875 17.1483 2.09654 15.3125C1.85432 13.4766 2.06944 11.6125 2.72465 9.86954C3.37986 8.12663 4.45694 6.5534 5.86954 5.27598C7.28213 3.99855 8.99096 3.05246 10.859 2.51355C12.7271 1.97463 14.7024 1.85789 16.6267 2.17268C18.551 2.48746 20.3707 3.22502 21.9399 4.32622C23.509 5.42742 24.7841 6.86164 25.6629 8.51389C26.5416 10.1662 26.9995 11.9905 27 13.8407Z" stroke="#1A73E8" stroke-width="2.08333"/>
<path d="M15.8889 9.89366C15.8889 10.2427 15.7426 10.5774 15.4822 10.8242C15.2217 11.071 14.8684 11.2096 14.5001 11.2096V13.8415C15.6051 13.8415 16.6649 13.4255 17.4463 12.6852C18.2277 11.9448 18.6667 10.9407 18.6667 9.89366H15.8889ZM14.5001 11.2096C14.1317 11.2096 13.7784 11.071 13.518 10.8242C13.2575 10.5774 13.1112 10.2427 13.1112 9.89366H10.3334C10.3334 10.9407 10.7724 11.9448 11.5538 12.6852C12.3352 13.4255 13.395 13.8415 14.5001 13.8415V11.2096ZM13.1112 9.89366C13.1112 9.54466 13.2575 9.20994 13.518 8.96316C13.7784 8.71637 14.1317 8.57773 14.5001 8.57773V5.94586C13.395 5.94586 12.3352 6.36179 11.5538 7.10215C10.7724 7.8425 10.3334 8.84664 10.3334 9.89366H13.1112ZM14.5001 8.57773C14.8684 8.57773 15.2217 8.71637 15.4822 8.96316C15.7426 9.20994 15.8889 9.54466 15.8889 9.89366H18.6667C18.6667 8.84664 18.2277 7.8425 17.4463 7.10215C16.6649 6.36179 15.6051 5.94586 14.5001 5.94586V8.57773ZM5.0084 21.5476L3.67646 21.1725L3.46118 21.8608L3.95424 22.4042L5.0084 21.5476ZM23.9917 21.5476L25.0473 22.4042L25.5389 21.8608L25.3237 21.1725L23.9917 21.5476ZM10.3334 19.1052H18.6667V16.4733H10.3334V19.1052ZM10.3334 16.4733C8.83775 16.4733 7.38203 16.9306 6.18267 17.7773C4.9833 18.6239 4.10434 19.8147 3.67646 21.1725L6.33896 21.9226C6.59626 21.1083 7.12389 20.3944 7.84349 19.8868C8.56309 19.3793 9.43629 19.1052 10.3334 19.1052V16.4733ZM14.5001 24.3689C12.8966 24.3706 11.3118 24.0427 9.85508 23.4077C8.39837 22.7727 7.10443 21.8458 6.06257 20.6909L3.95424 22.4042C5.25685 23.8472 6.87421 25.0053 8.69483 25.7989C10.5155 26.5924 12.496 27.0025 14.5001 27.0008V24.3689ZM18.6667 19.1052C20.5514 19.1052 22.1473 20.2922 22.6612 21.9239L25.3237 21.1725C24.8958 19.8149 24.0157 18.6243 22.8166 17.7777C21.6175 16.931 20.1621 16.4736 18.6667 16.4733V19.1052ZM22.9376 20.6909C21.8957 21.8458 20.6018 22.7727 19.145 23.4077C17.6883 24.0427 16.1035 24.3706 14.5001 24.3689V27.0008C16.5041 27.0025 18.4847 26.5924 20.3053 25.7989C22.1259 25.0053 23.7447 23.8472 25.0473 22.4042L22.9376 20.6909Z" fill="#1A73E8"/>
</svg>
