<svg width="25" height="35" viewBox="0 0 25 35" fill="none" xmlns="http://www.w3.org/2000/svg">
<path d="M6.73248 25.9272C7.74474 27.2171 8.66602 28.576 9.48966 29.9938C10.1929 31.3273 10.4861 32.2314 11 33.8381C11.3152 34.7258 11.6001 34.9907 12.2125 34.9907C12.8799 34.9907 13.1827 34.54 13.4166 33.843C13.9024 32.3257 14.2836 31.1677 14.885 30.0736C16.0651 27.9612 17.5315 26.084 18.9723 24.28C19.3623 23.7694 21.8842 20.7947 23.0196 18.4476C23.0196 18.4476 24.415 15.8694 24.415 12.2686C24.415 8.90037 23.0389 6.56433 23.0389 6.56433L19.0768 7.62539L16.6707 13.9627L16.0754 14.8365L15.9564 14.9948L15.7981 15.193L15.5202 15.5095L15.123 15.9066L12.9804 17.6522L7.6236 20.7451L6.73248 25.9272Z" fill="#34A853"/>
<path d="M1.20367 18.0142C2.51107 21.0005 5.03222 23.6255 6.73797 25.9293L15.798 15.1971C15.798 15.1971 14.5216 16.8664 12.2063 16.8664C9.62723 16.8664 7.54373 14.807 7.54373 12.2101C7.54373 10.4293 8.61509 9.20593 8.61509 9.20593L2.46491 10.8539L1.20367 18.0142Z" fill="#FBBC04"/>
<path d="M15.8992 0.551914C18.9082 1.52209 21.4837 3.55886 23.0416 6.56228L15.8008 15.191C15.8008 15.191 16.8721 13.9455 16.8721 12.1757C16.8721 9.5184 14.6345 7.53322 12.2172 7.53322C9.93136 7.53322 8.61853 9.19977 8.61853 9.19977V3.76381L15.8992 0.551819V0.551914Z" fill="#4285F4"/>
<path d="M2.8634 4.36451C4.66061 2.21425 7.82301 0 12.1828 0C14.2981 0 15.8917 0.555327 15.8917 0.555327L8.6117 9.20452H3.45373L2.8634 4.36451Z" fill="#1A73E8"/>
<path d="M1.20369 18.0142C1.20369 18.0142 0.000915527 15.6588 0.000915527 12.2466C0.000915527 9.0215 1.25462 6.20243 2.86338 4.3645L8.61578 9.20528L1.20369 18.0142Z" fill="#EA4335"/>
</svg>
