<svg width="21" height="21" viewBox="0 0 21 21" fill="none" xmlns="http://www.w3.org/2000/svg">
<g clip-path="url(#clip0_1_76)">
<path d="M8.75 14.6562C8.51667 14.6562 8.29413 14.6125 8.08238 14.525C7.87063 14.4375 7.67754 14.3135 7.50313 14.1531L3.34688 9.99687C3.18646 9.82187 3.0625 9.62849 2.975 9.41674C2.8875 9.20499 2.84375 8.98274 2.84375 8.74999C2.84375 8.51666 2.8875 8.29062 2.975 8.07187C3.0625 7.85312 3.18646 7.66353 3.34688 7.50312L7.50313 3.32499L6.01563 1.83749C5.85521 1.67708 5.775 1.4767 5.775 1.23637C5.775 0.996034 5.8625 0.788075 6.0375 0.612492C6.2125 0.452075 6.41667 0.368367 6.65 0.361367C6.88333 0.354367 7.0875 0.438075 7.2625 0.612492L14.1531 7.50312C14.3281 7.66353 14.4559 7.85312 14.5364 8.07187C14.6169 8.29062 14.6568 8.51666 14.6563 8.74999C14.6563 8.98333 14.616 9.20587 14.5355 9.41762C14.455 9.62937 14.3275 9.82245 14.1531 9.99687L9.99688 14.1531C9.83646 14.3135 9.64688 14.4375 9.42813 14.525C9.20938 14.6125 8.98333 14.6562 8.75 14.6562ZM8.75 4.57187L4.57188 8.74999H12.9281L8.75 4.57187ZM16.625 14.875C16.1438 14.875 15.7316 14.7035 15.3886 14.3605C15.0456 14.0175 14.8744 13.6057 14.875 13.125C14.875 12.8187 14.9663 12.4906 15.1489 12.1406C15.3315 11.7906 15.5318 11.4625 15.75 11.1562C15.8813 10.9812 16.0198 10.799 16.1656 10.6094C16.3115 10.4198 16.4646 10.2375 16.625 10.0625C16.7854 10.2375 16.9385 10.4198 17.0844 10.6094C17.2302 10.799 17.3688 10.9812 17.5 11.1562C17.7188 11.4625 17.9194 11.7906 18.102 12.1406C18.2846 12.4906 18.3756 12.8187 18.375 13.125C18.375 13.6062 18.2035 14.0184 17.8605 14.3614C17.5175 14.7044 17.1057 14.8756 16.625 14.875ZM3.5 21C3.01875 21 2.60663 20.8285 2.26363 20.4855C1.92063 20.1425 1.74942 19.7307 1.75 19.25C1.75 18.7687 1.9215 18.3566 2.2645 18.0136C2.6075 17.6706 3.01933 17.4994 3.5 17.5H17.5C17.9813 17.5 18.3934 17.6715 18.7364 18.0145C19.0794 18.3575 19.2506 18.7693 19.25 19.25C19.25 19.7312 19.0785 20.1434 18.7355 20.4864C18.3925 20.8294 17.9807 21.0006 17.5 21H3.5Z" fill="#111111"/>
</g>
<defs>
<clipPath id="clip0_1_76">
<rect width="21" height="21" fill="white"/>
</clipPath>
</defs>
</svg>
