<svg width="25" height="25" viewBox="0 0 25 25" fill="none" xmlns="http://www.w3.org/2000/svg">
<path d="M6.24998 21.875C5.46873 21.875 4.69616 21.6841 3.93227 21.3021C3.16838 20.9202 2.55206 20.4167 2.08331 19.7917C2.5347 19.7917 2.99477 19.6136 3.46352 19.2573C3.93227 18.9011 4.16665 18.3847 4.16665 17.7084C4.16665 16.8403 4.47047 16.1025 5.0781 15.4948C5.68574 14.8872 6.42359 14.5834 7.29165 14.5834C8.1597 14.5834 8.89755 14.8872 9.50519 15.4948C10.1128 16.1025 10.4166 16.8403 10.4166 17.7084C10.4166 18.8542 10.0087 19.8351 9.19269 20.6511C8.37672 21.467 7.39581 21.875 6.24998 21.875ZM12.2396 15.625L9.37498 12.7604L18.6979 3.43752C18.8889 3.24655 19.1278 3.14655 19.4146 3.13752C19.7014 3.1285 19.9486 3.2285 20.1562 3.43752L21.5625 4.84377C21.7708 5.05211 21.875 5.29516 21.875 5.57294C21.875 5.85072 21.7708 6.09377 21.5625 6.30211L12.2396 15.625Z" fill="#111111"/>
</svg>
