<svg width="55" height="48" viewBox="0 0 55 48" fill="none" xmlns="http://www.w3.org/2000/svg">
<path d="M38.9583 28H43.5417V34H50.4167V38H43.5417V44H38.9583V38H32.0833V34H38.9583V28ZM27.5 34V30H16.0417V34H27.5ZM38.9583 22H16.0417V26H33.6646C31.7685 27.0909 30.2125 28.5757 29.1365 30.3212C28.0605 32.0666 27.4982 34.018 27.5 36C27.5 38.18 28.1646 40.24 29.3333 42H11.4583C10.2428 42 9.07697 41.5786 8.21743 40.8284C7.35789 40.0783 6.875 39.0609 6.875 38V10C6.875 7.78 8.91458 6 11.4583 6H43.5417C44.7572 6 45.923 6.42143 46.7826 7.17157C47.6421 7.92172 48.125 8.93913 48.125 10V25.6C46.1083 24.58 43.7479 24 41.25 24L38.9583 24.16V22ZM38.9583 18V14H16.0417V18H38.9583Z" fill="#111111"/>
</svg>
