<svg width="69" height="64" viewBox="0 0 69 64" fill="none" xmlns="http://www.w3.org/2000/svg">
<path d="M43.125 21.3333V42.6667H14.375V21.3333H43.125ZM46 16H11.5C10.7375 16 10.0062 16.281 9.46707 16.781C8.9279 17.2811 8.625 17.9594 8.625 18.6667V45.3333C8.625 46.0406 8.9279 46.7189 9.46707 47.219C10.0062 47.7191 10.7375 48 11.5 48H46C46.7625 48 47.4938 47.7191 48.0329 47.219C48.5721 46.7189 48.875 46.0406 48.875 45.3333V36L60.375 46.6667V17.3333L48.875 28V18.6667C48.875 17.9594 48.5721 17.2811 48.0329 16.781C47.4938 16.281 46.7625 16 46 16Z" fill="#111111"/>
</svg>
