<svg width="46" height="46" viewBox="0 0 46 46" fill="none" xmlns="http://www.w3.org/2000/svg">
<path d="M23 44.5625C25.3996 44.5625 27.3448 43.4153 27.3448 42.0002C27.3448 40.585 25.3996 39.4378 23 39.4378C20.6004 39.4378 18.6552 40.585 18.6552 42.0002C18.6552 43.4153 20.6004 44.5625 23 44.5625Z" fill="#424242"/>
<path d="M23 1.4375C15.4244 1.4375 9.27905 7.06891 9.27905 14.012C9.27905 15.8233 9.8253 17.7603 10.6267 19.4673C11.7516 21.868 12.977 23.6433 13.3364 24.2973C14.3355 26.1158 14.1917 28.0312 14.4684 29.2316C14.9895 31.4741 16.5492 32.2862 22.9964 32.2862C29.4436 32.2862 30.8308 31.5136 31.4094 29.4472C31.8047 28.042 31.4201 26.5075 32.4156 24.6927C32.775 24.0386 34.2376 21.8716 35.3661 19.4673C36.1675 17.7603 36.7137 15.8233 36.7137 14.012C36.7209 7.06891 30.5756 1.4375 23 1.4375Z" fill="#FFD600"/>
<path d="M23 32.5558C27.3546 32.5558 30.8847 31.8382 30.8847 30.953C30.8847 30.0678 27.3546 29.3502 23 29.3502C18.6454 29.3502 15.1153 30.0678 15.1153 30.953C15.1153 31.8382 18.6454 32.5558 23 32.5558Z" fill="#B26500"/>
<path d="M23 32.5558C27.3546 32.5558 30.8847 31.8382 30.8847 30.953C30.8847 30.0678 27.3546 29.3502 23 29.3502C18.6454 29.3502 15.1153 30.0678 15.1153 30.953C15.1153 31.8382 18.6454 32.5558 23 32.5558Z" fill="#B26500"/>
<path d="M23 31.6933C26.1737 31.6933 28.7464 31.3618 28.7464 30.953C28.7464 30.5441 26.1737 30.2126 23 30.2126C19.8264 30.2126 17.2536 30.5441 17.2536 30.953C17.2536 31.3618 19.8264 31.6933 23 31.6933Z" fill="#FFA000"/>
<path d="M19.1547 20.4017C18.9319 20.9623 18.3533 22.1159 18.6552 22.6334C19.356 23.8373 21.0271 24.2686 21.0271 25.3754C21.0271 27.0645 19.798 32.5378 19.798 32.5378M26.6046 20.2004C26.6046 20.2004 27.4096 21.9254 27.0682 22.6981C26.813 23.2731 25.2785 24.2003 25.0808 24.3548C24.1644 25.0736 25.3827 32.5414 25.3827 32.5414" stroke="#B26500" stroke-width="0.390625" stroke-miterlimit="10"/>
<path d="M19.1547 20.4017C20.391 17.9579 21.0271 12.3804 19.4566 12.6643C16.808 13.1423 20.0711 22.3064 21.6775 21.2534C23.2839 20.2004 25.2749 12.6823 22.8311 12.6536C20.3874 12.6248 22.9964 22.2345 24.6567 21.1672C25.9685 20.3226 29.1705 12.6643 26.5399 12.6643C24.301 12.6643 26.6082 20.2004 26.6082 20.2004" stroke="white" stroke-width="0.390625" stroke-miterlimit="10"/>
<path d="M30.8667 31.2872C30.8667 31.2872 28.7967 32.2862 23 32.2862C17.2033 32.2862 15.1333 31.2872 15.1333 31.2872C15.1333 31.2872 15.0039 33.1344 15.4315 33.9717C15.9454 34.978 16.3408 35.3265 16.3408 35.3265L16.5564 36.3508L16.4701 36.6203C16.3587 36.9725 16.4378 37.3606 16.6858 37.6373L16.8726 37.8458L17.0811 38.8305L17.0092 39.0281C16.8726 39.4055 16.9661 39.8259 17.2464 40.1134L17.3829 40.2536L17.5518 41.0586C17.5518 41.0586 18.4072 42.8842 23 42.8842C27.5928 42.8842 28.4481 41.0586 28.4481 41.0586L28.4625 40.9903L28.5559 40.8969C28.7428 40.7136 28.8039 40.4405 28.714 40.1961L28.6601 40.0559L28.8829 38.9922L29.2747 38.5789C29.4687 38.374 29.5118 38.0722 29.3861 37.8206L29.2064 37.4648L29.4328 36.3975L29.5765 36.2861C29.7886 36.0525 29.7922 35.7003 29.6987 35.4595C29.6268 35.269 29.6843 35.0534 29.8317 34.9133C30.0581 34.6976 30.3492 34.3706 30.5648 33.9645C31.0068 33.1415 30.8667 31.2872 30.8667 31.2872Z" fill="#82AEC0"/>
<path d="M16.3408 35.3266L16.5348 36.358C18.6264 36.3472 21.4187 36.4514 26.777 35.5997C27.7437 35.3805 28.9045 34.9456 27.6215 35.1253C27.6215 35.1217 22.7017 35.5925 16.3408 35.3266ZM17.0595 38.8377C19.3739 38.7981 24.1033 38.5681 29.1848 37.4648L29.4112 36.3975C24.0961 37.605 19.0972 37.8206 16.8511 37.8494L17.0595 38.8377ZM28.8614 38.9886C24.1572 40.0092 19.7548 40.2716 17.3722 40.3291L17.5267 41.0622C17.5267 41.0622 17.6022 43.337 22.9748 43.337C28.3475 43.337 28.4229 41.0622 28.4229 41.0622C28.4229 41.0622 26.1301 41.7162 23.309 41.3964C23.2793 41.3966 23.2498 41.391 23.2223 41.3799C23.1947 41.3687 23.1696 41.3522 23.1484 41.3314C23.1056 41.2892 23.0813 41.2318 23.0808 41.1718C23.0804 41.1117 23.1038 41.054 23.1459 41.0112C23.188 40.9684 23.2454 40.9441 23.3054 40.9436C24.9909 40.7208 27.0034 40.3902 28.6386 40.0523L28.8614 38.9886Z" fill="#2F7889"/>
<path d="M15.1584 31.2872C15.1584 31.2872 17.48 32.2862 22.9784 32.2862C28.4769 32.2862 30.8416 31.2872 30.8416 31.2872" stroke="#82AEC0" stroke-width="0.780664" stroke-miterlimit="10" stroke-linecap="round"/>
<path d="M17.9257 3.70874C19.3308 3.36374 20.8007 3.53624 21.8069 4.75811C22.0908 5.10311 22.31 5.5128 22.3603 5.95842C22.461 6.81733 21.9291 7.62952 21.2966 8.22608C19.4925 9.92952 16.9302 10.7561 15.7658 13.1064C15.4927 13.6562 15.2771 14.2492 14.8602 14.6984C14.4433 15.1476 13.7497 15.4208 13.2071 15.1333C12.9196 14.9823 12.7219 14.6984 12.5602 14.4145C11.5396 12.5961 11.615 10.2781 12.5135 8.39499C13.5017 6.33217 15.6688 4.26217 17.9257 3.70874Z" fill="#FFFF8D"/>
<path d="M16.6929 33.0373C16.3767 32.8936 16.5025 32.4192 16.8475 32.4444C18.0047 32.5342 19.974 32.6456 22.5795 32.6456C25.3251 32.6456 27.7401 32.4408 29.1489 32.2898C29.4975 32.2539 29.6304 32.7319 29.3106 32.8792C28.2253 33.3895 26.2379 33.9717 22.8311 33.9717C19.5068 33.9717 17.674 33.4794 16.6929 33.0373Z" fill="#FFD600"/>
<path d="M18.666 36.667C18.4252 36.7533 18.1772 36.8719 18.055 37.0947C18.0119 37.1773 17.9867 37.2708 18.0047 37.3642C18.0335 37.5008 18.1592 37.5978 18.285 37.6589C18.5366 37.7811 18.8205 37.8134 19.0972 37.817C19.6686 37.8242 20.2364 37.7164 20.8006 37.6086C20.9696 37.5762 21.1421 37.5439 21.293 37.4612C21.4439 37.3786 21.5733 37.2384 21.5985 37.0695C21.6344 36.8431 21.4727 36.6239 21.275 36.5161C20.5922 36.1387 19.356 36.419 18.666 36.667ZM19.2014 39.0353C18.9606 39.1216 18.7127 39.2401 18.5905 39.463C18.5474 39.5456 18.5222 39.639 18.5402 39.7325C18.5689 39.869 18.6947 39.9661 18.8205 40.0272C19.0721 40.1494 19.356 40.1817 19.6327 40.1853C20.2041 40.1925 20.7719 40.0847 21.3361 39.9769C21.505 39.9445 21.6775 39.9122 21.8285 39.8295C21.9794 39.7469 22.1088 39.6067 22.1339 39.4378C22.1699 39.2114 22.0081 38.9922 21.8105 38.8844C21.1277 38.5106 19.8878 38.7909 19.2014 39.0353Z" fill="#94D1E0"/>
<path d="M17.9724 30.2594C18.2994 30.2917 18.6444 30.263 18.9211 30.0869C19.1978 29.9108 19.3739 29.5514 19.2625 29.2424C19.205 29.0806 19.0792 28.9513 18.957 28.8291C18.6875 28.5631 18.418 28.2972 18.152 28.0313C17.8538 27.733 17.5555 27.4383 17.232 27.1688C16.7325 26.7519 16.0605 26.3602 15.4028 26.6656C14.8422 26.9244 14.7092 27.4347 14.9572 27.9702C15.4855 29.095 16.7145 30.13 17.9724 30.2594Z" fill="#FFFF8D"/>
</svg>
