<svg width="33" height="33" viewBox="0 0 33 33" fill="none" xmlns="http://www.w3.org/2000/svg">
<path d="M8.25 6.53125C8.25 5.5825 9.02 4.8125 9.96875 4.8125H16.8438C18.0388 4.81342 19.2108 5.14209 20.2321 5.76276C21.2534 6.38342 22.0849 7.2723 22.6361 8.33268C23.1874 9.39305 23.4372 10.5843 23.3585 11.7768C23.2798 12.9693 22.8756 14.1174 22.1898 15.0961C23.6023 15.7634 24.7455 16.8918 25.431 18.2955C26.1166 19.6992 26.3036 21.2946 25.9613 22.8188C25.6191 24.343 24.7679 25.7053 23.548 26.6811C22.3281 27.657 20.8122 28.1883 19.25 28.1875H9.96875C9.02 28.1875 8.25 27.4175 8.25 26.4687V6.53125ZM11.6875 17.875V24.75H19.25C20.1617 24.75 21.036 24.3878 21.6807 23.7432C22.3253 23.0985 22.6875 22.2242 22.6875 21.3125C22.6875 20.4008 22.3253 19.5265 21.6807 18.8818C21.036 18.2372 20.1617 17.875 19.25 17.875H11.6875ZM11.6875 14.4375H16.8451C17.6656 14.4373 18.4525 14.1112 19.0325 13.5309C19.6126 12.9506 19.9384 12.1636 19.9382 11.3431C19.938 10.5225 19.6119 9.73571 19.0316 9.15565C18.4512 8.57559 17.6643 8.24982 16.8438 8.25H11.6875V14.4375Z" fill="#111111"/>
</svg>
