<svg width="25" height="25" viewBox="0 0 25 25" fill="none" xmlns="http://www.w3.org/2000/svg">
<path d="M22.2656 12.5C22.2656 12.8108 22.1422 13.1089 21.9224 13.3286C21.7026 13.5484 21.4046 13.6719 21.0938 13.6719H13.6719V21.0938C13.6719 21.4046 13.5484 21.7026 13.3286 21.9224C13.1089 22.1422 12.8108 22.2656 12.5 22.2656C12.1892 22.2656 11.8911 22.1422 11.6714 21.9224C11.4516 21.7026 11.3281 21.4046 11.3281 21.0938V13.6719H3.90625C3.59545 13.6719 3.29738 13.5484 3.07761 13.3286C2.85784 13.1089 2.73438 12.8108 2.73438 12.5C2.73438 12.1892 2.85784 11.8911 3.07761 11.6714C3.29738 11.4516 3.59545 11.3281 3.90625 11.3281H11.3281V3.90625C11.3281 3.59545 11.4516 3.29738 11.6714 3.07761C11.8911 2.85784 12.1892 2.73438 12.5 2.73438C12.8108 2.73438 13.1089 2.85784 13.3286 3.07761C13.5484 3.29738 13.6719 3.59545 13.6719 3.90625V11.3281H21.0938C21.4046 11.3281 21.7026 11.4516 21.9224 11.6714C22.1422 11.8911 22.2656 12.1892 22.2656 12.5Z" fill="#111111"/>
</svg>
