<svg width="43" height="43" viewBox="0 0 43 43" fill="none" xmlns="http://www.w3.org/2000/svg">
<path d="M40.3125 4.02644L29.5531 4.02648V1.34839C29.5531 0.605967 28.9518 0.00463867 28.2093 0.00463867C27.4669 0.00463867 26.8656 0.605967 26.8656 1.34839V4.02581H16.1156V1.34839C16.1156 0.605967 15.5143 0.00463867 14.7718 0.00463867C14.0294 0.00463867 13.4281 0.605967 13.4281 1.34839V4.02581H2.6875C1.20333 4.02581 0 5.22914 0 6.71331V40.3071C0 41.7912 1.20333 42.9946 2.6875 42.9946H40.3125C41.7967 42.9946 43 41.7912 43 40.3071V6.71331C43 5.22977 41.7967 4.02644 40.3125 4.02644ZM40.3125 40.3071H2.6875V6.71331H13.4281V8.06714C13.4281 8.80952 14.0294 9.41089 14.7718 9.41089C15.5143 9.41089 16.1156 8.80952 16.1156 8.06714V6.71398H26.8656V8.06781C26.8656 8.81023 27.4669 9.41156 28.2093 9.41156C28.9518 9.41156 29.5531 8.81023 29.5531 8.06781V6.71398H40.3125V40.3071ZM30.9062 21.4952H33.5938C34.3355 21.4952 34.9375 20.8932 34.9375 20.1514V17.4639C34.9375 16.7222 34.3355 16.1202 33.5938 16.1202H30.9062C30.1645 16.1202 29.5625 16.7222 29.5625 17.4639V20.1514C29.5625 20.8932 30.1645 21.4952 30.9062 21.4952ZM30.9062 32.2445H33.5938C34.3355 32.2445 34.9375 31.6432 34.9375 30.9008V28.2133C34.9375 27.4715 34.3355 26.8695 33.5938 26.8695H30.9062C30.1645 26.8695 29.5625 27.4715 29.5625 28.2133V30.9008C29.5625 31.6439 30.1645 32.2445 30.9062 32.2445ZM22.8438 26.8695H20.1562C19.4145 26.8695 18.8125 27.4715 18.8125 28.2133V30.9008C18.8125 31.6432 19.4145 32.2445 20.1562 32.2445H22.8438C23.5855 32.2445 24.1875 31.6432 24.1875 30.9008V28.2133C24.1875 27.4722 23.5855 26.8695 22.8438 26.8695ZM22.8438 16.1202H20.1562C19.4145 16.1202 18.8125 16.7222 18.8125 17.4639V20.1514C18.8125 20.8932 19.4145 21.4952 20.1562 21.4952H22.8438C23.5855 21.4952 24.1875 20.8932 24.1875 20.1514V17.4639C24.1875 16.7215 23.5855 16.1202 22.8438 16.1202ZM12.0938 16.1202H9.40625C8.6645 16.1202 8.0625 16.7222 8.0625 17.4639V20.1514C8.0625 20.8932 8.6645 21.4952 9.40625 21.4952H12.0938C12.8355 21.4952 13.4375 20.8932 13.4375 20.1514V17.4639C13.4375 16.7215 12.8355 16.1202 12.0938 16.1202ZM12.0938 26.8695H9.40625C8.6645 26.8695 8.0625 27.4715 8.0625 28.2133V30.9008C8.0625 31.6432 8.6645 32.2445 9.40625 32.2445H12.0938C12.8355 32.2445 13.4375 31.6432 13.4375 30.9008V28.2133C13.4375 27.4722 12.8355 26.8695 12.0938 26.8695Z" fill="#111111"/>
</svg>
