<svg width="25" height="25" viewBox="0 0 25 25" fill="none" xmlns="http://www.w3.org/2000/svg">
<path d="M15.625 20.8333C15.625 19.1074 14.2259 17.7083 12.5 17.7083C10.7741 17.7083 9.375 19.1074 9.375 20.8333C9.375 22.5592 10.7741 23.9583 12.5 23.9583C14.2259 23.9583 15.625 22.5592 15.625 20.8333Z" fill="#111111"/>
<path d="M15.625 20.8333C15.625 19.1074 14.2259 17.7083 12.5 17.7083C10.7741 17.7083 9.375 19.1074 9.375 20.8333C9.375 22.5592 10.7741 23.9583 12.5 23.9583C14.2259 23.9583 15.625 22.5592 15.625 20.8333Z" fill="#111111"/>
<path d="M15.625 12.5C15.625 10.7741 14.2259 9.375 12.5 9.375C10.7741 9.375 9.375 10.7741 9.375 12.5C9.375 14.2259 10.7741 15.625 12.5 15.625C14.2259 15.625 15.625 14.2259 15.625 12.5Z" fill="#111111"/>
<path d="M15.625 4.16669C15.625 2.4408 14.2259 1.04169 12.5 1.04169C10.7741 1.04169 9.375 2.4408 9.375 4.16669C9.375 5.89258 10.7741 7.29169 12.5 7.29169C14.2259 7.29169 15.625 5.89258 15.625 4.16669Z" fill="#111111"/>
</svg>
