<svg width="35" height="35" viewBox="0 0 35 35" fill="none" xmlns="http://www.w3.org/2000/svg">
<path d="M7.29169 7.29167C7.29169 6.51812 7.59898 5.77625 8.14596 5.22927C8.69294 4.68229 9.43481 4.375 10.2084 4.375H24.7917C25.5652 4.375 26.3071 4.68229 26.8541 5.22927C27.4011 5.77625 27.7084 6.51812 27.7084 7.29167V10.2083C27.7084 10.9819 27.4011 11.7237 26.8541 12.2707C26.3071 12.8177 25.5652 13.125 24.7917 13.125H10.2084C9.43481 13.125 8.69294 12.8177 8.14596 12.2707C7.59898 11.7237 7.29169 10.9819 7.29169 10.2083V7.29167Z" stroke="#111111" stroke-width="2.08333" stroke-linecap="round" stroke-linejoin="round"/>
<path d="M27.7084 8.75H29.1667C29.9403 8.75 30.6821 9.05729 31.2291 9.60427C31.7761 10.1513 32.0834 10.8931 32.0834 11.6667C32.0834 13.6005 31.3151 15.4552 29.9477 16.8227C28.5802 18.1901 26.7256 18.9583 24.7917 18.9583H17.5V21.875M14.5834 23.3333C14.5834 22.9466 14.737 22.5756 15.0105 22.3021C15.284 22.0286 15.6549 21.875 16.0417 21.875H18.9584C19.3451 21.875 19.7161 22.0286 19.9896 22.3021C20.2631 22.5756 20.4167 22.9466 20.4167 23.3333V29.1667C20.4167 29.5534 20.2631 29.9244 19.9896 30.1979C19.7161 30.4714 19.3451 30.625 18.9584 30.625H16.0417C15.6549 30.625 15.284 30.4714 15.0105 30.1979C14.737 29.9244 14.5834 29.5534 14.5834 29.1667V23.3333Z" stroke="#111111" stroke-width="2.08333" stroke-linecap="round" stroke-linejoin="round"/>
</svg>
