<svg width="25" height="25" viewBox="0 0 25 25" fill="none" xmlns="http://www.w3.org/2000/svg">
<path d="M21.5729 11.7604L16.3646 6.55207C16.2674 6.45495 16.1521 6.37791 16.0252 6.32534C15.8983 6.27278 15.7623 6.24573 15.625 6.24573C15.3476 6.24573 15.0815 6.35592 14.8854 6.55207C14.7883 6.6492 14.7112 6.7645 14.6587 6.8914C14.6061 7.01829 14.579 7.1543 14.579 7.29166C14.579 7.56905 14.6892 7.83509 14.8854 8.03124L19.3646 12.5L14.8854 16.9687C14.7878 17.0656 14.7103 17.1808 14.6574 17.3077C14.6045 17.4347 14.5773 17.5708 14.5773 17.7083C14.5773 17.8458 14.6045 17.982 14.6574 18.1089C14.7103 18.2359 14.7878 18.3511 14.8854 18.4479C14.9822 18.5455 15.0974 18.623 15.2244 18.6759C15.3513 18.7288 15.4875 18.756 15.625 18.756C15.7625 18.756 15.8986 18.7288 16.0256 18.6759C16.1525 18.623 16.2677 18.5455 16.3646 18.4479L21.5729 13.2396C21.6705 13.1427 21.748 13.0275 21.8009 12.9006C21.8538 12.7737 21.881 12.6375 21.881 12.5C21.881 12.3625 21.8538 12.2263 21.8009 12.0994C21.748 11.9725 21.6705 11.8572 21.5729 11.7604Z" fill="#111111"/>
</svg>
