<svg width="13" height="7" viewBox="0 0 13 7" fill="none" xmlns="http://www.w3.org/2000/svg">
<path d="M12.4853 0.66688L7.06664 5.97313C7.02958 6.00951 6.98556 6.03837 6.9371 6.05806C6.88864 6.07775 6.83669 6.08789 6.78422 6.08789C6.73175 6.08789 6.67979 6.07775 6.63133 6.05806C6.58287 6.03837 6.53885 6.00951 6.5018 5.97313L1.08315 0.66688C1.02722 0.612248 0.98911 0.542583 0.973659 0.466717C0.958208 0.390851 0.966109 0.3122 0.99636 0.240737C1.02661 0.169273 1.07785 0.108215 1.14358 0.0653025C1.20931 0.0223895 1.28657 -0.000445762 1.36557 -0.000307351L12.2029 -0.000307351C12.2819 -0.000445762 12.3591 0.0223895 12.4249 0.0653025C12.4906 0.108215 12.5418 0.169273 12.5721 0.240737C12.6023 0.3122 12.6102 0.390851 12.5948 0.466717C12.5793 0.542583 12.5412 0.612248 12.4853 0.66688Z" fill="#111111"/>
</svg>
