<svg width="13" height="7" viewBox="0 0 13 7" fill="none" xmlns="http://www.w3.org/2000/svg">
<path d="M12.0571 0.66688L6.63848 5.97313C6.60142 6.00951 6.5574 6.03837 6.50894 6.05806C6.46048 6.07775 6.40852 6.08789 6.35605 6.08789C6.30359 6.08789 6.25163 6.07775 6.20317 6.05806C6.15471 6.03837 6.11069 6.00951 6.07363 5.97313L0.654986 0.66688C0.599054 0.612248 0.560948 0.542583 0.545498 0.466717C0.530047 0.390851 0.537947 0.3122 0.568198 0.240737C0.598449 0.169273 0.649686 0.108215 0.715416 0.0653025C0.781146 0.0223895 0.858408 -0.000445762 0.937406 -0.000307351L11.7747 -0.000307351C11.8537 -0.000445762 11.931 0.0223895 11.9967 0.0653025C12.0624 0.108215 12.1137 0.169273 12.1439 0.240737C12.1742 0.3122 12.1821 0.390851 12.1666 0.466717C12.1512 0.542583 12.1131 0.612248 12.0571 0.66688Z" fill="#111111"/>
</svg>
