<svg width="26" height="24" viewBox="0 0 26 24" fill="none" xmlns="http://www.w3.org/2000/svg">
<path d="M23.2906 0H11.0364C10.4947 0 9.97526 0.210714 9.59224 0.585787C9.20922 0.96086 8.99404 1.46957 8.99404 2C8.99404 2.53043 9.20922 3.03914 9.59224 3.41421C9.97526 3.78929 10.4947 4 11.0364 4H14.1408L7.60523 20H2.86695C2.32528 20 1.8058 20.2107 1.42278 20.5858C1.03976 20.9609 0.824585 21.4696 0.824585 22C0.824585 22.5304 1.03976 23.0391 1.42278 23.4142C1.8058 23.7893 2.32528 24 2.86695 24H15.1211C15.6628 24 16.1823 23.7893 16.5653 23.4142C16.9483 23.0391 17.1635 22.5304 17.1635 22C17.1635 21.4696 16.9483 20.9609 16.5653 20.5858C16.1823 20.2107 15.6628 20 15.1211 20H12.0167L18.5523 4H23.2906C23.8323 4 24.3517 3.78929 24.7348 3.41421C25.1178 3.03914 25.333 2.53043 25.333 2C25.333 1.46957 25.1178 0.96086 24.7348 0.585787C24.3517 0.210714 23.8323 0 23.2906 0Z" fill="#111111"/>
</svg>
