<svg width="26" height="25" viewBox="0 0 26 25" fill="none" xmlns="http://www.w3.org/2000/svg">
<path fill-rule="evenodd" clip-rule="evenodd" d="M13.2105 6.21702e-09C13.6306 -2.93965e-05 14.0413 0.104235 14.3909 0.299661C14.7405 0.495087 15.0134 0.772934 15.1751 1.09821L23.1388 17.1338L23.1761 17.2088L25.8176 22.5276C26.0246 22.9631 26.0192 23.4495 25.8024 23.8817C25.5856 24.3139 25.175 24.6572 24.659 24.8375C24.1431 25.0178 23.5633 25.0207 23.0449 24.8454C22.5265 24.6701 22.1111 24.3308 21.8884 23.9008L19.7737 19.6427H6.64735L4.53269 23.9017C4.31536 24.3388 3.89994 24.6856 3.37783 24.8657C2.85572 25.0459 2.26968 25.0447 1.74864 24.8624C1.22759 24.68 0.814228 24.3315 0.599475 23.8935C0.384723 23.4555 0.386175 22.9638 0.603511 22.5267L3.24496 17.2088C3.25669 17.1833 3.2691 17.158 3.28221 17.1329L11.2459 1.0991C11.4075 0.77366 11.6803 0.495624 12.0299 0.300032C12.3795 0.10444 12.7903 4.40722e-05 13.2105 6.21702e-09ZM8.42144 16.0713H17.9996L13.2105 6.42854L8.42144 16.0713Z" fill="#111111"/>
</svg>
